<?xml version="1.0" standalone="no"?>
<!DOCTYPE svg PUBLIC "-//W3C//DTD SVG 20010904//EN"
 "http://www.w3.org/TR/2001/REC-SVG-20010904/DTD/svg10.dtd">
<svg version="1.0" xmlns="http://www.w3.org/2000/svg"
 width="200.000000pt" height="200.000000pt" viewBox="0 0 200.000000 200.000000"
 preserveAspectRatio="xMidYMid meet">

<g transform="translate(0.000000,200.000000) scale(0.100000,-0.100000)"
fill="#000000" stroke="none">
<path d="M885 1988 c-79 -12 -226 -54 -295 -85 -84 -37 -218 -130 -290 -203
-73 -72 -166 -206 -203 -290 -48 -108 -97 -318 -97 -415 0 -99 53 -319 101
-423 92 -196 266 -373 467 -473 241 -119 568 -128 822 -23 224 94 439 308 533
534 102 243 99 542 -8 795 -10 22 -30 59 -46 83 -16 24 -29 45 -29 48 0 11
-83 116 -123 155 -131 131 -273 215 -442 262 -161 45 -263 54 -390 35z m291
-173 c64 -13 103 -27 204 -72 110 -50 255 -181 331 -298 91 -144 134 -309 126
-485 -6 -125 -26 -206 -78 -317 -37 -80 -95 -173 -109 -173 -10 0 -170 160
-170 170 0 5 9 24 20 43 26 45 36 141 20 206 -9 39 -21 59 -46 79 -28 22 -34
34 -34 65 0 67 -39 129 -102 162 -13 6 -22 18 -20 25 7 29 -11 92 -34 120 -32
38 -98 59 -222 69 -55 5 -106 12 -113 16 -8 5 -10 26 -6 65 5 43 3 61 -7 70
-36 29 -163 -43 -201 -114 -11 -20 -22 -36 -25 -36 -13 0 -230 224 -227 234 2
6 26 26 53 44 42 29 79 48 199 103 81 37 317 50 441 24z m-646 -459 l160 -160
-28 -20 c-41 -28 -72 -88 -72 -136 0 -35 -6 -47 -38 -78 -53 -51 -71 -133 -48
-211 32 -108 107 -169 263 -213 107 -30 379 -33 491 -4 l73 18 72 -68 c40 -38
85 -84 101 -102 l29 -34 -29 -23 c-16 -14 -35 -24 -41 -25 -7 0 -13 -4 -13 -9
0 -13 -168 -87 -245 -108 -95 -25 -303 -25 -397 0 -125 33 -242 90 -323 157
-94 78 -190 195 -228 280 -70 156 -87 231 -87 377 0 106 18 213 46 279 63 149
124 249 146 242 4 -2 80 -75 168 -162z m353 -351 c44 -41 46 -52 12 -67 -47
-21 -107 48 -75 87 17 20 20 19 63 -20z m327 10 c11 -20 10 -28 -4 -50 -9 -14
-20 -25 -24 -25 -16 0 -84 79 -78 89 4 6 26 11 50 11 35 0 45 -4 56 -25z
m-117 -225 c28 -26 28 -28 13 -57 -19 -37 -57 -63 -92 -63 -37 0 -81 34 -94
74 -20 63 7 86 94 78 38 -3 58 -11 79 -32z"/>
</g>
</svg>
